<svg width="25" height="25" viewBox="0 0 25 25" fill="none" xmlns="http://www.w3.org/2000/svg">
<path d="M9.32422 15.0558C9.32422 16.9758 10.9042 18.5558 12.8242 18.5558C14.7442 18.5558 16.3242 16.9758 16.3242 15.0558" stroke="#191816" stroke-width="1.5" stroke-miterlimit="10" stroke-linecap="round" stroke-linejoin="round"/>
<path d="M9.63367 2.8058L6.01367 6.4358" stroke="#191816" stroke-width="1.5" stroke-miterlimit="10" stroke-linecap="round" stroke-linejoin="round"/>
<path d="M16.0137 2.8058L19.6337 6.4358" stroke="#191816" stroke-width="1.5" stroke-miterlimit="10" stroke-linecap="round" stroke-linejoin="round"/>
<path d="M2.82422 8.65581C2.82422 6.80581 3.81422 6.65581 5.04422 6.65581H20.6042C21.8342 6.65581 22.8242 6.80581 22.8242 8.65581C22.8242 10.8058 21.8342 10.6558 20.6042 10.6558H5.04422C3.81422 10.6558 2.82422 10.8058 2.82422 8.65581Z" stroke="#191816" stroke-width="1.5"/>
<path d="M4.32422 10.8058L5.73422 19.4458C6.05422 21.3858 6.82422 22.8058 9.68422 22.8058H15.7142C18.8242 22.8058 19.2842 21.4458 19.6442 19.5658L21.3242 10.8058" stroke="#191816" stroke-width="1.5" stroke-linecap="round"/>
</svg>
